<svg id="color" height="512" viewBox="0 0 64 64" width="512" xmlns="http://www.w3.org/2000/svg"><path d="m21 56.25h22v4.75h-22z" fill="#b9d5ee"/><path d="m43 57a37 37 0 0 0 2-12v-20h-26v20a37 37 0 0 0 2 12z" fill="#f4af14"/><path d="m17 22h30v4h-30z" fill="#b9d5ee"/><g fill="#8c6239"><circle cx="23" cy="53" r="3"/><circle cx="29" cy="53" r="3"/><circle cx="35" cy="53" r="3"/><circle cx="41" cy="53" r="3"/><circle cx="38" cy="47.812" r="3"/><circle cx="32" cy="47.812" r="3"/><circle cx="26" cy="47.812" r="3"/></g><path d="m29 3h6v19h-6z" fill="#e6e6e6"/><path d="m29 12h6a10 10 0 0 1 10 10v1a0 0 0 0 1 0 0h-26a0 0 0 0 1 0 0v-1a10 10 0 0 1 10-10z" fill="#d8e6f1"/></svg>