<svg height="512" viewBox="0 0 64 64" width="512" xmlns="http://www.w3.org/2000/svg"><path d="m11 47h-2v-26a3 3 0 0 1 3-3h4a1 1 0 0 0 1-1v-9h2v9a3 3 0 0 1 -3 3h-4a1 1 0 0 0 -1 1z" fill="#87cee9"/><path d="m55 47h-2v-26a1 1 0 0 0 -1-1h-4a3 3 0 0 1 -3-3v-9h2v9a1 1 0 0 0 1 1h4a3 3 0 0 1 3 3z" fill="#87cee9"/><path d="m42 8h4v2h-4z" fill="#195c85"/><path d="m41 6h2v6h-2z" fill="#87cee9"/><path d="m18 8h4v2h-4z" fill="#195c85"/><path d="m21 6h2v6h-2z" fill="#87cee9"/><path d="m13 47h38v14h-38z" fill="#ffd782"/><path d="m13 43h38v4h-38z" fill="#f9bb4b"/><path d="m13 29h38v14h-38z" fill="#ffd782"/><path d="m13 25h38v4h-38z" fill="#f9bb4b"/><g fill="#32b1cc"><path d="m40 26h-16a4 4 0 0 1 0-8h1a1 1 0 0 0 0-2h-3a5.006 5.006 0 0 1 -5-5v-8a1 1 0 0 1 1-1h28a1 1 0 0 1 1 1v8a5.006 5.006 0 0 1 -5 5h-3a1 1 0 0 0 0 2h1a4 4 0 0 1 0 8zm-16-6a2 2 0 0 0 0 4h16a2 2 0 0 0 0-4h-1a3 3 0 0 1 0-6h3a3 3 0 0 0 3-3v-7h-26v7a3 3 0 0 0 3 3h3a3 3 0 0 1 0 6z"/><path d="m9 29h4v8h-4z"/><path d="m9 47h4a0 0 0 0 1 0 0v8a0 0 0 0 1 0 0h-2a2 2 0 0 1 -2-2v-6a0 0 0 0 1 0 0z"/><path d="m51 29h4v8h-4z" transform="matrix(-1 0 0 -1 106 66)"/><path d="m53 47h2a0 0 0 0 1 0 0v8a0 0 0 0 1 0 0h-4a0 0 0 0 1 0 0v-6a2 2 0 0 1 2-2z" transform="matrix(-1 0 0 -1 106 102)"/></g><path d="m48 58h-4v-2h2v-4h2z" fill="#f4f4e6"/><path d="m40 56h2v2h-2z" fill="#f4f4e6"/><path d="m24 33h16v4h-16z" fill="#f4f4e6"/><path d="m18 38h-2v-6h4v2h-2z" fill="#f4f4e6"/></svg>