<?xml version="1.0" encoding="iso-8859-1"?>
<!-- Generator: Adobe Illustrator 19.0.0, SVG Export Plug-In . SVG Version: 6.00 Build 0)  -->
<svg version="1.1" id="Capa_1" xmlns="http://www.w3.org/2000/svg" xmlns:xlink="http://www.w3.org/1999/xlink" x="0px" y="0px"
	 viewBox="0 0 472 472" style="enable-background:new 0 0 472 472;" xml:space="preserve">
<path style="fill:#FFD782;" d="M124,168h224v48H124V168z"/>
<path style="fill:#CFDFE8;" d="M236,56c53.019,0,96,42.981,96,96v16l0,0H140l0,0v-16C140,98.981,182.981,56,236,56z"/>
<g>
	<path style="fill:#FDBD40;" d="M316,472H156l-16-256h192L316,472z"/>
	<path style="fill:#FDBD40;" d="M236,112c-4.418,0-8-3.582-8-8V8c0-4.418,3.582-8,8-8s8,3.582,8,8v96
		C244,108.418,240.418,112,236,112z"/>
</g>
<g>
	<path style="fill:#FFFFFF;" d="M204,440h-16c-4.418,0-8-3.582-8-8s3.582-8,8-8h16c4.418,0,8,3.582,8,8S208.418,440,204,440z"/>
	<path style="fill:#FFFFFF;" d="M316,440h-80c-4.418,0-8-3.582-8-8s3.582-8,8-8h80c4.418,0,8,3.582,8,8S320.418,440,316,440z"/>
</g>
<path style="fill:#E9686A;" d="M284,136h-16c8.837,0,16-7.163,16-16s-7.163-16-16-16h-64c-8.837,0-16,7.163-16,16s7.163,16,16,16
	h-16c-8.837,0-16,7.163-16,16s7.163,16,16,16h96c8.837,0,16-7.163,16-16S292.837,136,284,136z"/>
<g>
</g>
<g>
</g>
<g>
</g>
<g>
</g>
<g>
</g>
<g>
</g>
<g>
</g>
<g>
</g>
<g>
</g>
<g>
</g>
<g>
</g>
<g>
</g>
<g>
</g>
<g>
</g>
<g>
</g>
</svg>
