<?xml version="1.0" encoding="iso-8859-1"?>
<!-- Generator: Adobe Illustrator 19.0.0, SVG Export Plug-In . SVG Version: 6.00 Build 0)  -->
<svg version="1.1" id="Capa_1" xmlns="http://www.w3.org/2000/svg" xmlns:xlink="http://www.w3.org/1999/xlink" x="0px" y="0px"
	 viewBox="0 0 512.001 512.001" style="enable-background:new 0 0 512.001 512.001;" xml:space="preserve">
<g>
	<g>
		<path style="fill:#FFFBEE;" d="M63.37,178.689c15.478-5.531,26.631-20.369,26.631-37.688H50H10
			c0,17.35,11.192,32.209,26.714,37.719c4.162,1.476,8.635,2.281,13.286,2.281C54.683,181.001,59.185,180.185,63.37,178.689z"/>
		<path style="fill:#FFFBEE;" d="M64.729,254.212c-0.797-24.357-1.359-49.313-1.359-75.523c-4.185,1.496-8.688,2.313-13.37,2.313
			c-4.651,0-9.124-0.805-13.286-2.281c0,90.031-6.713,165.184-6.713,252.279c0,11.043,8.954,20,19.999,20
			c11.046,0,19.999-8.957,19.999-20c0-55.771-2.716-106.648-4.671-159.654c-0.402-5.063-0.606-10.18-0.606-15.346
			C64.722,255.404,64.724,254.808,64.729,254.212z"/>
	</g>
	<path style="fill:#CC3B5A;" d="M256.001,64.72c-105.045,0-190.313,84.674-191.272,189.492c0.188,5.74,0.389,11.449,0.599,17.133
		c7.815,98.465,90.197,175.934,190.673,175.934c101.017,0,183.744-78.305,190.792-177.527c0.169-4.564,0.332-9.145,0.487-13.746
		c0-0.002,0-0.004,0-0.006C447.28,150.359,361.642,64.72,256.001,64.72L256.001,64.72z M118.458,255.999
		c0-75.963,61.58-137.541,137.543-137.541c47.396,0,89.191,23.975,113.925,60.457c2.913,2.018,5.743,4.258,8.461,6.717
		c40.316,36.482,34.669,72.91,12.366,98.062c-12.816,62.688-68.276,109.848-134.752,109.848
		C180.038,393.543,118.458,331.962,118.458,255.999z"/>
	<path style="fill:#C77C74;" d="M256.001,118.459c-75.963,0-137.543,61.578-137.543,137.541s61.58,137.543,137.543,137.543
		c66.476,0,121.935-47.16,134.752-109.848c-16.432,18.531-41.905,30.941-64.698,32.74c-0.157,0.012-0.315,0.023-0.473,0.035
		c-62,4.5-72.62-50.043-59.5-70.5c13.119-20.459,11.068,1.359,17.999-43c6.387-40.873,51.709-47.711,85.845-24.055
		C345.192,142.433,303.397,118.459,256.001,118.459z"/>
	<path style="fill:#FFFBEE;" d="M369.927,178.916c-34.137-23.656-79.459-16.818-85.846,24.055c-6.931,44.359-4.88,22.541-17.999,43
		c-13.12,20.457-2.5,75,59.5,70.5c0.157-0.012,0.315-0.023,0.473-0.035c22.798-1.801,48.27-14.219,64.702-32.758
		c-0.002,0.006-0.003,0.012-0.004,0.018c22.303-25.152,27.95-61.58-12.366-98.062C375.669,183.173,372.839,180.933,369.927,178.916
		L369.927,178.916z M329.62,258.543c0-17.949,14.551-32.5,32.5-32.5c17.948,0,32.499,14.551,32.499,32.5s-14.551,32.5-32.499,32.5
		C344.171,291.043,329.62,276.492,329.62,258.543z"/>
	<circle style="fill:#FFBA5A;" cx="362.12" cy="258.54" r="32.5"/>
	<g>
		<path style="fill:#FFFBEE;" d="M422.001,141.001c0,17.35,11.192,32.209,26.714,37.719c4.161,1.476,8.634,2.281,13.286,2.281
			c4.683,0,9.185-0.816,13.37-2.313c15.478-5.531,26.63-20.369,26.63-37.688c0-40.455-15.004-80-40-80
			S422.001,102.775,422.001,141.001z"/>
		<path style="fill:#FFFBEE;" d="M448.715,178.72c0,26.846-0.597,52.369-1.435,77.279c0,0.002,0,0.004,0,0.006
			c0,4.623-0.164,9.205-0.487,13.746c-1.983,53.592-4.792,104.922-4.792,161.248c0,11.043,8.955,20,20,20s19.999-8.957,19.999-20
			c0-87.125-6.629-162.303-6.629-252.311c-4.185,1.496-8.688,2.313-13.37,2.313C457.349,181.001,452.876,180.197,448.715,178.72z"/>
	</g>
</g>
<path d="M512.001,141.001c0-44.725-17.175-90-50-90c-29.621,0-46.801,38.576-49.593,78.464
	C375.476,83.902,319.087,54.72,256.001,54.72c-62.853,0-119.061,28.965-156,74.239V61.001c0-5.522-4.478-10-10-10s-10,4.478-10,10
	v70H60v-70c0-5.522-4.478-10-10-10s-10,4.478-10,10v70H20v-70c0-5.522-4.477-10-10-10c-5.522,0-10,4.478-10,10v80
	c0,19.159,10.837,35.827,26.698,44.219c-0.153,42.722-1.788,82.665-3.374,121.349C21.691,346.41,20.001,387.608,20.001,431
	c0,16.542,13.458,30,29.999,30s29.999-13.458,29.999-30c0-27.597-0.677-54.3-1.582-80.337
	c33.927,63.391,100.798,106.616,177.584,106.616c76.802,0,143.684-43.243,177.604-106.654c-0.919,26.049-1.604,52.765-1.604,80.375
	c0,16.542,13.458,30,30,30C478.542,461,492,447.542,492,431c0-43.41-1.669-84.623-3.282-124.479
	c-1.566-38.686-3.18-78.631-3.332-121.343C501.202,176.771,512.001,160.128,512.001,141.001z M39.892,169.245
	c-0.08-0.027-0.159-0.06-0.241-0.084c-8.346-3.077-14.953-9.767-17.931-18.159h56.56c-2.968,8.369-9.547,15.042-17.859,18.131
	c-0.115,0.035-0.225,0.082-0.338,0.121c-3.153,1.129-6.547,1.748-10.083,1.748C46.454,171.001,43.052,170.379,39.892,169.245z
	 M56.733,307.33c1.606,39.657,3.266,80.664,3.266,123.67c0,5.514-4.485,10-9.999,10s-9.999-4.486-9.999-10
	c0-42.982,1.681-83.972,3.307-123.611c1.525-37.186,3.092-75.532,3.361-116.51c1.103,0.072,2.211,0.123,3.331,0.123
	c1.148,0,2.285-0.053,3.415-0.13c0.142,21.915,0.65,43.083,1.324,63.72c-0.003,0.471-0.018,0.938-0.018,1.408
	c0,5.318,0.211,10.589,0.618,15.805C55.782,283.79,56.259,295.62,56.733,307.33z M256.001,437.279
	c-95.058,0-173.254-73.545-180.693-166.721c-0.197-5.369-0.387-10.77-0.564-16.206c0.888-99.201,81.85-179.632,181.257-179.632
	c99.886,0,181.159,81.205,181.276,181.063c-0.147,4.394-0.301,8.769-0.462,13.118C430.176,362.861,351.62,437.279,256.001,437.279z
	 M468.734,307.33C470.34,346.987,472,387.994,472,431c0,5.514-4.485,10-9.999,10s-10-4.486-10-10
	c0-42.982,1.681-83.972,3.307-123.611c0.507-12.36,1.019-24.852,1.486-37.521c0.311-4.56,0.483-9.157,0.485-13.795
	c0.707-21.102,1.243-42.754,1.391-65.194c1.103,0.072,2.211,0.123,3.331,0.123c1.148,0,2.285-0.053,3.414-0.13
	C465.683,231.822,467.229,270.156,468.734,307.33z M472.421,169.132c-0.113,0.035-0.221,0.08-0.331,0.119
	c-3.154,1.13-6.55,1.75-10.089,1.75c-3.546,0-6.947-0.622-10.107-1.757c-0.082-0.027-0.16-0.06-0.242-0.084
	c-11.457-4.225-19.65-15.253-19.65-28.159c0-36.636,14.299-70,30-70c16.262,0,30,32.056,30,70
	C492.001,153.881,483.841,164.889,472.421,169.132z"/>
<path d="M385.097,178.217c-2.538-2.297-5.197-4.42-7.935-6.398c-27.629-39.702-72.775-63.36-121.161-63.36
	c-81.356,0-147.543,66.187-147.543,147.541c0,81.356,66.187,147.543,147.543,147.543c34.202,0,67.539-11.972,93.871-33.709
	c25.31-20.893,43.041-49.802,50.138-81.629c6.499-7.791,11.44-16.27,14.458-25.034C420.19,246.547,423.983,213.406,385.097,178.217z
	 M397.601,235.185c-7.61-11.521-20.669-19.143-35.48-19.143c-23.434,0-42.5,19.065-42.5,42.5c0,19.703,13.48,36.314,31.7,41.105
	c-8.013,3.461-16.207,5.73-23.836,6.601c-0.069,0.008-0.14,0.017-0.209,0.024c-0.813,0.09-1.618,0.166-2.417,0.224
	c-2.161,0.156-4.299,0.236-6.353,0.236c-25.306-0.002-36.985-11.652-42.327-21.425c-2.11-3.86-3.503-7.94-4.283-11.939
	c-0.089-0.453-0.151-0.902-0.225-1.354c-0.056-0.344-0.124-0.69-0.171-1.032c-0.595-4.35-0.46-8.514,0.234-12.12
	c0.568-2.949,1.507-5.53,2.767-7.494c2.641-4.117,4.299-5.904,5.565-6.998c0.422-0.364,0.8-0.651,1.156-0.922
	c7.273-5.521,8.141-9.494,12.74-38.935c0.129-0.822,0.274-1.622,0.436-2.399c0.555-2.659,1.309-5.042,2.207-7.205
	c0.415-0.998,0.854-1.96,1.33-2.86c0.041-0.078,0.087-0.149,0.129-0.227c1.365-2.528,2.965-4.671,4.711-6.492
	c8.342-8.697,20.074-9.977,26.191-9.977c0.065,0,0.131,0.004,0.195,0.004c0.762,0.004,1.526,0.025,2.293,0.063
	c0.329,0.017,0.66,0.042,0.99,0.064c0.502,0.034,1.003,0.073,1.505,0.121c0.397,0.039,0.794,0.082,1.191,0.129
	c0.423,0.05,0.847,0.108,1.27,0.168c0.445,0.064,0.89,0.126,1.336,0.2c0.319,0.054,0.638,0.117,0.957,0.177
	c1.201,0.222,2.403,0.475,3.604,0.775c0.036,0.009,0.072,0.017,0.109,0.025c0.607,0.154,1.215,0.324,1.822,0.497
	c0.207,0.059,0.412,0.116,0.618,0.177c0.595,0.177,1.19,0.363,1.782,0.559c0.201,0.066,0.402,0.135,0.603,0.203
	c0.611,0.208,1.222,0.422,1.83,0.649c0.11,0.041,0.219,0.086,0.329,0.128c1.94,0.738,3.864,1.58,5.765,2.516
	c0.271,0.133,0.541,0.263,0.811,0.399c0.478,0.243,0.954,0.497,1.429,0.752c0.348,0.188,0.694,0.378,1.04,0.571
	c0.428,0.239,0.854,0.481,1.278,0.73c0.425,0.25,0.846,0.509,1.267,0.767c0.351,0.217,0.704,0.429,1.053,0.652
	c3.359,2.153,6.591,4.613,9.633,7.366C386.807,206.738,395.53,221.015,397.601,235.185z M362.12,281.043
	c-12.406,0-22.5-10.094-22.5-22.5c0-12.406,10.094-22.5,22.5-22.5s22.5,10.094,22.5,22.5
	C384.62,270.949,374.526,281.043,362.12,281.043z M256.001,383.543c-70.327,0-127.543-57.216-127.543-127.543
	c0-70.326,57.216-127.541,127.543-127.541c28.904,0,56.478,9.764,78.642,27.124c-0.419-0.034-0.837-0.05-1.256-0.076
	c-0.373-0.023-0.745-0.05-1.118-0.067c-1.048-0.049-2.094-0.08-3.137-0.082c-0.055-0.001-0.11-0.005-0.165-0.005
	c-28.896,0-50.393,18.085-54.766,46.074c-1.331,8.519-3.52,22.526-4.813,25.898c-0.084,0.063-0.171,0.127-0.261,0.195
	c-2.916,2.214-6.448,5.23-11.464,13.053c-1.025,1.599-1.912,3.313-2.697,5.097c-0.089,0.202-0.195,0.393-0.281,0.599
	c-5.911,14.061-4.546,33.107,3.943,48.638c6.487,11.866,22.864,31.757,59.689,31.825c0.063,0,0.122,0.003,0.185,0.003
	c0.003,0,0.005,0,0.008,0c2.025,0,4.115-0.079,6.22-0.202c0.526-0.031,1.048-0.049,1.576-0.087c0.998-0.072,2-0.167,3.004-0.275
	c0.515-0.055,1.031-0.124,1.547-0.188c0.44-0.056,0.878-0.108,1.318-0.171c0.751-0.103,1.503-0.222,2.255-0.345
	c0.124-0.021,0.248-0.041,0.371-0.062c11.999-2.014,24.181-6.407,35.519-12.813C349.196,355.081,305.189,383.543,256.001,383.543z"
	/>
<path d="M248.257,153.937c-5.027-2.287-10.956-0.061-13.241,4.966l-5,11.002c-2.285,5.028-0.061,10.957,4.966,13.241
	c1.342,0.61,2.748,0.899,4.132,0.899c3.801,0,7.435-2.18,9.109-5.865l5-11.002C255.508,162.15,253.284,156.221,248.257,153.937z"/>
<path d="M183.561,233.231c1.384,0,2.79-0.289,4.132-0.899c5.028-2.285,7.251-8.214,4.966-13.241l-5-11
	c-2.284-5.029-8.215-7.254-13.241-4.966c-5.028,2.285-7.251,8.214-4.966,13.241l5,11
	C176.127,231.052,179.761,233.231,183.561,233.231z"/>
<path d="M228.641,313.251l-12.026,1.17c-5.497,0.535-9.521,5.425-8.985,10.921c0.503,5.168,4.854,9.033,9.941,9.033
	c0.324,0,0.65-0.016,0.98-0.048l12.026-1.17c5.497-0.535,9.52-5.425,8.985-10.921C239.026,316.739,234.135,312.704,228.641,313.251z
	"/>
<path d="M284.765,339.556L273.45,343.8c-5.172,1.941-7.791,7.704-5.852,12.875c1.506,4.015,5.316,6.491,9.365,6.491
	c1.166,0,2.354-0.206,3.51-0.64l11.314-4.244c5.172-1.941,7.791-7.704,5.852-12.875C295.7,340.237,289.936,337.618,284.765,339.556z
	"/>
<path d="M191.943,274.875c-5.023-2.284-10.956-0.063-13.241,4.966l-5,11c-2.285,5.027-0.063,10.956,4.966,13.241
	c1.342,0.61,2.747,0.899,4.132,0.899c3.801,0,7.435-2.18,9.109-5.865l5-11C199.194,283.088,196.972,277.16,191.943,274.875z"/>
<path d="M222.514,211.069c1.351,0.619,2.767,0.912,4.161,0.912c3.789,0,7.414-2.166,9.097-5.836l0.107-0.234
	c2.301-5.021,0.097-10.957-4.924-13.258c-5.02-2.302-10.956-0.097-13.258,4.924l-0.107,0.234
	C215.289,202.833,217.493,208.768,222.514,211.069z"/>
<g>
</g>
<g>
</g>
<g>
</g>
<g>
</g>
<g>
</g>
<g>
</g>
<g>
</g>
<g>
</g>
<g>
</g>
<g>
</g>
<g>
</g>
<g>
</g>
<g>
</g>
<g>
</g>
<g>
</g>
</svg>
