<svg height="511pt" viewBox="-116 1 511 511.99902" width="511pt" xmlns="http://www.w3.org/2000/svg"><g fill-rule="evenodd"><path d="m136.5 142v60.585938c10.75.953124 21.5 1.980468 32 2.96875v-63.554688zm0 0" fill="#6a87c1"/><path d="m168.5 142v63.554688c42.304688 3.984374 80.515625 7.347656 98.101562 2.726562l3.898438-66.28125zm0 0" fill="#cdebff"/><path d="m136.5 142h32v-96c0-1.085938.457031-2.082031 1.1875-2.8125.734375-.734375 1.730469-1.191406 2.8125-1.191406h82c8.835938 0 16-7.160156 16-16 0-8.835938-7.160156-16-16-16h-82c-9.914062 0-18.917969 4.046875-25.4375 10.5625-6.515625 6.519531-10.5625 15.523437-10.5625 25.4375zm0 0" fill="#6a87c1"/><path d="m13.714844 196.679688c39.214844-3.03125 100.527344 5.242187 154.785156 10.585937v-1.710937c-10.5-.988282-21.25-2.015626-32-2.96875v-60.582032h-126zm0 0" fill="#cdebff"/><path d="m168.5 207.265625c-54.257812-5.34375-115.570312-13.617187-154.785156-10.589844l16.785156 285.324219c.644531 10.980469 9 20 20 20h180c10.996094 0 19.351562-9.019531 20-20l16.101562-273.71875c-20.417968 5.367188-57.261718 3.003906-98.101562-1.015625zm-42.996094 55.820313v30c0 5.5-4.5 10-10 10h-30.003906c-5.5 0-10-4.5-10-10v-30c0-5.5 4.5-10 10-10h30.003906c5.5 0 10 4.5 10 10zm60.246094 49.929687 28.976562 7.765625c5.316407 1.421875 8.496094 6.933594 7.074219 12.246094l-7.765625 28.976562c-1.425781 5.3125-6.9375 8.496094-12.246094 7.074219l-28.980468-7.765625c-5.3125-1.425781-8.492188-6.9375-7.070313-12.25l7.765625-28.976562c1.421875-5.3125 6.933594-8.496094 12.246094-7.070313zm-111.738281 86.917969 25.980469-15c4.765624-2.75 10.910156-1.101563 13.660156 3.660156l15 25.984375c2.75 4.761719 1.105468 10.910156-3.660156 13.660156l-25.980469 15c-4.761719 2.75-10.910157 1.101563-13.660157-3.660156l-15-25.984375c-2.75-4.761719-1.101562-10.910156 3.660157-13.660156zm0 0" fill="#c1734c"/><path d="m115.503906 253.085938h-30c-5.5 0-10 4.5-10 10v30c0 5.5 4.5 10 10 10h30c5.5 0 10-4.5 10-10v-30c0-5.5-4.5-10-10-10zm0 0" fill="#f0f0f0"/><path d="m173.503906 320.085938-7.765625 28.976562c-1.421875 5.316406 1.757813 10.824219 7.070313 12.25l28.976562 7.765625c5.3125 1.421875 10.824219-1.761719 12.25-7.074219l7.761719-28.976562c1.425781-5.3125-1.757813-10.824219-7.070313-12.246094l-28.976562-7.765625c-5.3125-1.425781-10.824219 1.757813-12.246094 7.070313zm0 0" fill="#f0f0f0"/><path d="m128.652344 414.578125-15-25.984375c-2.75-4.761719-8.894532-6.410156-13.660156-3.660156l-25.980469 15c-4.761719 2.75-6.410157 8.898437-3.660157 13.660156l15 25.980469c2.75 4.765625 8.898438 6.410156 13.660157 3.660156l25.980469-15c4.765624-2.75 6.410156-8.894531 3.660156-13.65625zm0 0" fill="#f0f0f0"/></g><path d="m270.5 132h-92v-80h76c14.335938 0 26-11.664062 26-26s-11.664062-26-26-26h-82c-12.261719 0-23.808594 4.789062-32.507812 13.488281-8.699219 8.699219-13.492188 20.246094-13.492188 32.511719v86h-27.519531c-5.519531 0-10 4.480469-10 10 0 5.523438 4.480469 10 10 10h27.519531v40.828125c-37.160156-3.921875-74.519531-7.546875-103.386719-6.652344l-2.007812-34.175781h8.910156c5.523437 0 10-4.476562 10-10s-4.476563-10-10-10h-19.515625c-2.753906 0-5.386719 1.136719-7.277344 3.140625s-2.867187 4.695313-2.707031 7.445313l20.003906 340c.96875 16.492187 14.136719 29.414062 29.980469 29.414062h180c15.84375 0 29.011719-12.921875 29.980469-29.414062l20-340c.164062-2.75-.816407-5.441407-2.707031-7.445313-1.886719-2.003906-4.519532-3.140625-7.273438-3.140625zm-10.605469 20-2.824219 48c-18.324218 2.742188-47.113281 1.09375-78.570312-1.828125v-46.171875zm-113.394531-106c0-6.921875 2.710938-13.445312 7.632812-18.367188 4.921876-4.921874 11.445313-7.632812 18.367188-7.632812h82c3.308594 0 6 2.691406 6 6s-2.691406 6-6 6h-82c-3.71875 0-7.226562 1.460938-9.882812 4.113281-2.65625 2.65625-4.117188 6.167969-4.117188 9.886719v86h-12zm12 106v44.203125c-3.988281-.410156-7.992188-.828125-12-1.253906v-42.949219zm82.015625 329.414062c-.355469 6.035157-4.660156 10.585938-10.015625 10.585938h-180c-5.355469 0-9.664062-4.550781-10.019531-10.585938l-16.191407-275.269531c30.105469-.875 71 3.472657 110.6875 7.695313 11.011719 1.171875 21.898438 2.328125 32.496094 3.371094.003906 0 .007813.003906.011719.003906 24.222656 2.386718 46.90625 4.183594 65.988281 4.183594 8.1875 0 15.703125-.335938 22.402344-1.089844zm0 0"/><path d="m58.746094 152h.269531c5.523437 0 10-4.476562 10-10 0-5.519531-4.476563-10-10-10h-.269531c-5.519532 0-10 4.480469-10 10 0 5.523438 4.476562 10 10 10zm0 0"/><path d="m150.734375 462.003906h-.238281c-5.519532 0-10 4.476563-10 10 0 5.519532 4.480468 10 10 10h.238281c5.519531 0 10-4.480468 10-10 0-5.523437-4.480469-10-10-10zm0 0"/><path d="m220.5 462h-41.035156c-5.523438 0-10 4.476562-10 10 0 5.519531 4.476562 10 10 10h41.035156c5.519531 0 10-4.480469 10-10 0-5.523438-4.480469-10-10-10zm0 0"/><path d="m122.3125 383.59375c-2.664062-4.617188-6.976562-7.921875-12.144531-9.304688-5.167969-1.386718-10.558594-.679687-15.175781 1.984376l-25.980469 15c-4.617188 2.667968-7.921875 6.980468-9.304688 12.148437-1.386719 5.167969-.679687 10.554687 1.984375 15.171875l15 25.980469c2.667969 4.617187 6.980469 7.925781 12.148438 9.308593 1.730468.464844 3.484375.691407 5.226562.691407 3.460938 0 6.875-.90625 9.945313-2.679688l25.980469-15c9.550781-5.511719 12.835937-17.769531 7.320312-27.320312zm-28.300781 50.984375-15-25.980469 25.980469-15.003906 15 25.984375zm0 0"/><path d="m217.316406 311.121094-28.980468-7.765625c-5.144532-1.382813-10.535157-.667969-15.167969 2.007812-4.632813 2.675781-7.945313 6.984375-9.324219 12.136719l-7.765625 28.976562c-1.378906 5.148438-.667969 10.535157 2.007813 15.171876 2.675781 4.632812 6.984374 7.941406 12.132812 9.324218l28.980469 7.761719c1.714843.460937 3.457031.691406 5.1875.691406 3.464843 0 6.894531-.914062 9.980469-2.699219 4.636718-2.671874 7.945312-6.980468 9.324218-12.132812l7.765625-28.976562c2.855469-10.652344-3.488281-21.640626-14.140625-24.496094zm-12.941406 48.296875-28.976562-7.765625 7.761718-28.980469v.003906h.003906l28.976563 7.765625zm0 0"/><path d="m85.503906 313.085938h30c11.027344 0 20-8.972657 20-20v-30c0-11.027344-8.972656-20-20-20h-30c-11.027344 0-20 8.972656-20 20v30c0 11.027343 8.96875 20 20 20zm0-50 30-.003907v30.003907h-30zm0 0"/></svg>