<?xml version="1.0" encoding="iso-8859-1"?>
<!-- Generator: Adobe Illustrator 19.0.0, SVG Export Plug-In . SVG Version: 6.00 Build 0)  -->
<svg version="1.1" id="Capa_1" xmlns="http://www.w3.org/2000/svg" xmlns:xlink="http://www.w3.org/1999/xlink" x="0px" y="0px"
	 viewBox="0 0 512 512" style="enable-background:new 0 0 512 512;" xml:space="preserve">
<path style="fill:#FE9923;" d="M451,90h-75V30h105c8.284,0,15,6.716,15,15l0,0C496,69.853,475.853,90,451,90z"/>
<path style="fill:#BF6015;" d="M421,45c0,24.899-20.099,45-45,45h-15c-18.6,0-36.599-9-47.999-24l-4.501-6H301
	c-32.999,0-60,26.999-60,60v60h-60v-60c0-30.3,11.4-57.9,30-79.2C232.899,15.899,265,0,301,0h75C400.901,0,421,20.099,421,45z"/>
<path style="fill:#994C10;" d="M31,512c-8.291,0-15-6.709-15-15s6.709-15,15-15c8.276,0,15-6.724,15-15v-30c0-8.291,6.709-15,15-15
	s15,6.709,15,15v30C76,491.814,55.814,512,31,512z"/>
<g>
	<path style="fill:#713708;" d="M389.989,512c-24.375,0-44.136-19.087-44.971-43.447l-0.879-25.415
		c-0.293-8.276,6.182-15.22,14.473-15.498c8.496-0.835,15.22,6.182,15.498,14.473l0.879,25.415c0.278,8.115,6.87,14.473,15,14.473
		c8.291,0,15,6.709,15,15S398.28,512,389.989,512z"/>
	<path style="fill:#713708;" d="M353.5,318.199c-4.799-5.099-7.5-11.7-7.5-18.9V257l-65.099,171.299l71.4,51
		c2.699,1.8,5.7,2.701,8.699,2.701c2.401,0,4.799-0.601,6.899-1.8c5.102-2.4,8.101-7.5,8.101-13.2v-95.101
		C376,352.7,368.2,334.1,353.5,318.199z"/>
</g>
<path style="fill:#994C10;" d="M76,257v42.299c0,7.2-2.701,13.801-7.5,18.9C53.8,334.1,46,352.7,46,371.899V467
	c0,5.7,2.999,10.8,8.101,13.2c5.099,2.699,11.1,2.399,15.599-0.901l71.4-51L76,257z"/>
<path style="fill:#BF6015;" d="M254.5,121.5c-10.8-0.601-20.4,1.5-28.5,6.301c-5.7,2.999-10.8,7.2-15,12.599
	c-4.2-5.099-9.3-9.3-15-12.301c-9-5.099-19.501-7.5-30.3-6.299C125.501,124.799,76,165,76,225c0,0,0,8.5,0,16v16
	c0,47.999,25.201,125.099,65.099,171.299C161.201,451.399,184.9,467,211,467s49.799-15.601,69.901-38.701
	C320.799,382.099,346,304.999,346,257v-32C346,164.399,295,123.3,254.5,121.5z"/>
<g>
	<path style="fill:#994C10;" d="M346,225v32c0,47.999-25.201,125.099-65.099,171.299C260.799,451.399,237.1,467,211,467V140.4
		c4.2-5.4,9.3-9.6,15-12.599c8.101-4.801,17.701-6.901,28.5-6.301C295,123.3,346,164.399,346,225z"/>
	<path style="fill:#994C10;" d="M226,377c0,8.399-6.599,15-15,15s-15-6.601-15-15c0-8.401,6.599-15,15-15S226,368.599,226,377z"/>
	<path style="fill:#994C10;" d="M226,127.8V317c0,8.399-6.599,15-15,15s-15-6.601-15-15V128.099c5.7,3.001,10.8,7.202,15,12.301
		C215.2,135,220.3,130.8,226,127.8z"/>
</g>
<g>
	<path style="fill:#713708;" d="M226,377c0,8.399-6.599,15-15,15v-30C219.401,362,226,368.599,226,377z"/>
	<path style="fill:#713708;" d="M226,127.8V317c0,8.399-6.599,15-15,15V140.4C215.2,135,220.3,130.8,226,127.8z"/>
</g>
<g>
</g>
<g>
</g>
<g>
</g>
<g>
</g>
<g>
</g>
<g>
</g>
<g>
</g>
<g>
</g>
<g>
</g>
<g>
</g>
<g>
</g>
<g>
</g>
<g>
</g>
<g>
</g>
<g>
</g>
</svg>
